<svg xmlns="http://www.w3.org/2000/svg" viewBox="0 0 360 70.53"><defs><style>.cls-1,.cls-2{fill:#ffffff;}.cls-2{fill-rule:evenodd;}</style></defs><g id="Layer_2" data-name="Layer 2"><g id="Layer_1-2" data-name="Layer 1"><path class="cls-1" d="M329.43,55.33l-.46.16a115,115,0,0,0-11.48,4.38.92.92,0,0,0-.36.39c-.07.17-.16.38-.27.62v0c-.45,1-1.07,2.55-1.34,3.18l-.2.49a.2.2,0,0,0,.05.23.16.16,0,0,0,.13.06l.09,0,.49-.24c1.09-.52,2.48-1.31,3.93-2l.05,0,7.77-3.69a1.18,1.18,0,0,0,.45-.46l1.41-2.82a.21.21,0,0,0,0-.23.24.24,0,0,0-.23-.06Z"/><path class="cls-1" d="M318.19,51l1.32-2.54,0-.06a174.3,174.3,0,0,1,22.11-32.3l.24-.27a.29.29,0,0,0,0-.31.28.28,0,0,0-.28-.14l-.36.05c-5.62.77-11.31,1.85-16.91,3.19a2.27,2.27,0,0,0-1,.6,192,192,0,0,0-11.81,15.73,2.41,2.41,0,0,0-.2.93,123.89,123.89,0,0,0,2.26,12.25c-3.32,9.53-6.27,22.09-6.27,22.09a.26.26,0,0,0,0,.24.33.33,0,0,0,.21.11h1.89a.29.29,0,0,0,.27-.18l.12-.36c1.93-5.24,4.13-10.43,6.55-15.48.56-1.18,1.75-3.55,1.75-3.55Z"/><path class="cls-1" d="M344.43,18.12v-.36a.27.27,0,0,0-.17-.25.26.26,0,0,0-.3.08l-.24.27A171.3,171.3,0,0,0,318.76,56l-.15.32a.25.25,0,0,0,0,.31.28.28,0,0,0,.2.08.18.18,0,0,0,.1,0l.33-.13a162.1,162.1,0,0,1,17-6,1.28,1.28,0,0,0,.79-.65c2.49-4.86,8.29-14.28,8.29-14.28a.92.92,0,0,0,.11-.52s-1-11.27-1.08-17Z"/><path class="cls-1" d="M357.34,1.88C355.93.65,353.87.07,350.67,0a31.66,31.66,0,0,0-10.25,1.85,4,4,0,0,0-1.47.94c-4,3.73-7.83,7.69-11.48,11.77l-.28.31a.27.27,0,0,0,0,.32.26.26,0,0,0,.29.13l.41-.09a177,177,0,0,1,17.65-2.85,1.39,1.39,0,0,1,1.07.34,1.36,1.36,0,0,1,.44,1A162.54,162.54,0,0,0,347.65,31l0,.38a.27.27,0,0,0,.2.23H348a.28.28,0,0,0,.23-.11l.22-.31A163,163,0,0,1,359,17.68h0a2.2,2.2,0,0,0,.61-1.22c1.19-7.57-.64-13.16-2.28-14.58Z"/><path class="cls-1" d="M87,18.74A12.75,12.75,0,0,0,77.76,23h-.13V6.88H71.41V53.71h5.71V50.44h.13a13.64,13.64,0,0,0,9.62,4.23c9,0,14.76-7.05,14.76-18C101.63,26.12,95.59,18.74,87,18.74ZM85.91,49c-4.69,0-8.28-3.21-8.28-7.45V32.47a8,8,0,0,1,8.28-8c6.09,0,9.49,4.42,9.49,12.25S92,49,85.91,49Z"/><path class="cls-1" d="M51.2,18.74c-9.24,0-15.59,7.38-15.59,18,0,10.84,6.16,18,15.59,18s15.4-7.12,15.4-18C66.6,26.12,60.31,18.74,51.2,18.74ZM51.2,49c-5.84,0-9.43-4.75-9.43-12.32s3.59-12.25,9.43-12.25c5.64,0,9.24,4.81,9.24,12.25S56.84,49,51.2,49Z"/><path class="cls-1" d="M32.72,21.83c0-8-5.9-13-15.14-13H0V53.71H6.42V35.94h9.17c7.06,0,9.62,2.82,9.62,10.65v7.12h6.23V46.59c0-7.17-2.19-11.43-6.94-13.18A11.73,11.73,0,0,0,32.72,21.83Zm-15.66,8.4H6.42V14.64H17c6.1,0,9.24,2.63,9.24,7.83C26.24,27.47,23,30.23,17.06,30.23Z"/><path class="cls-1" d="M135.57,18.74c-3.6,0-7.45,1.74-9.31,4.24h-.13V19.71H120v34h6.22V32.35c0-4.81,3.15-7.83,8.09-7.83s7.18,2.82,7.18,8.72V53.71h6.29V31.45C147.82,23.62,143.07,18.74,135.57,18.74Z"/><path class="cls-1" d="M237.06,18.74c-9.24,0-15.59,7.38-15.59,18,0,10.84,6.16,18,15.59,18s15.4-7.12,15.4-18C252.46,26.12,246.17,18.74,237.06,18.74Zm0,30.29c-5.84,0-9.43-4.75-9.43-12.32s3.59-12.25,9.43-12.25c5.65,0,9.24,4.81,9.24,12.25S242.71,49,237.06,49Z"/><path class="cls-1" d="M280.3,6.88V23h-.12A12.41,12.41,0,0,0,271,18.74c-8.6,0-14.69,7.51-14.69,18,0,10.91,5.77,18,14.75,18a13.66,13.66,0,0,0,9.63-4.23h.13v3.27h5.71V6.88Zm0,34.7c0,4.24-3.59,7.45-8.27,7.45-6.1,0-9.5-4.43-9.5-12.32s3.4-12.25,9.5-12.25a8,8,0,0,1,8.27,8Z"/><path class="cls-1" d="M202.23,18.74c-9.24,0-15.6,7.38-15.6,18,0,10.84,6.16,18,15.6,18s15.39-7.12,15.39-18C217.62,26.12,211.33,18.74,202.23,18.74Zm0,30.29c-5.85,0-9.44-4.75-9.44-12.32s3.59-12.25,9.44-12.25c5.64,0,9.23,4.81,9.23,12.25S207.87,49,202.23,49Z"/><path class="cls-2" d="M106.5,6.88h6.74v6.61H106.5Z"/><path class="cls-1" d="M170,18.74c-3.79,0-7.64,1.8-9.43,4.37h-.13V6.88h-6.23V53.71h6.23V32.35c0-4.62,3.33-7.83,8.08-7.83s7.38,3.08,7.38,8.4V53.71h6.22V31.39C182.14,23.62,177.46,18.74,170,18.74Z"/><path class="cls-2" d="M106.76,19.71H113v34h-6.22Z"/></g></g></svg>